<svg id="Capa_1" enable-background="new 0 0 512 512" height="512" viewBox="0 0 512 512" width="512" xmlns="http://www.w3.org/2000/svg" xmlns:xlink="http://www.w3.org/1999/xlink"><linearGradient id="SVGID_1_" gradientUnits="userSpaceOnUse" x1="256" x2="256" y1="512" y2="0"><stop offset="0" stop-color="#5558ff"/><stop offset="1" stop-color="#00c0ff"/></linearGradient><g><g><g><path d="m467 211c-24.813 0-45 20.187-45 45s20.187 45 45 45 45-20.187 45-45-20.187-45-45-45zm0 60c-8.271 0-15-6.729-15-15s6.729-15 15-15 15 6.729 15 15-6.729 15-15 15zm-211-181c24.813 0 45-20.187 45-45s-20.187-45-45-45-45 20.187-45 45 20.187 45 45 45zm0-60c8.271 0 15 6.729 15 15s-6.729 15-15 15-15-6.729-15-15 6.729-15 15-15zm116.673 342.673c-17.545 17.545-17.545 46.094 0 63.639 17.544 17.545 46.094 17.546 63.639 0 17.545-17.545 17.545-46.094 0-63.639-17.544-17.546-46.094-17.547-63.639 0zm42.426 42.426c-5.849 5.848-15.365 5.847-21.213 0-5.863-5.864-5.863-15.35 0-21.213 5.864-5.863 15.35-5.862 21.213 0 5.848 5.848 5.848 15.364 0 21.213zm21.213-275.772c17.545-17.545 17.545-46.094 0-63.639-17.544-17.545-46.094-17.546-63.639 0-17.545 17.545-17.545 46.094 0 63.639 17.544 17.545 46.094 17.547 63.639 0zm-42.426-42.426c5.85-5.849 15.365-5.848 21.213 0 5.848 5.849 5.848 15.365 0 21.213-5.864 5.862-15.35 5.862-21.213 0-5.863-5.864-5.863-15.35 0-21.213zm-137.886 325.099c-24.813 0-45 20.187-45 45s20.187 45 45 45 45-20.187 45-45-20.187-45-45-45zm0 60c-8.271 0-15-6.729-15-15s6.729-15 15-15 15 6.729 15 15-6.729 15-15 15zm-180.312-109.327c-17.545 17.545-17.545 46.094 0 63.639 17.544 17.545 46.094 17.546 63.639 0 17.545-17.545 17.545-46.094 0-63.639-17.545-17.547-46.095-17.546-63.639 0zm42.426 42.426c-5.848 5.848-15.364 5.849-21.213 0-5.848-5.849-5.848-15.365 0-21.213 5.864-5.863 15.35-5.862 21.213 0 5.863 5.864 5.863 15.35 0 21.213zm137.886-204.099c-24.813 0-45 20.187-45 45s20.187 45 45 45 45-20.187 45-45-20.187-45-45-45zm0 60c-8.271 0-15-6.729-15-15s6.729-15 15-15 15 6.729 15 15-6.729 15-15 15zm-116.673-131.673c17.545-17.545 17.545-46.094 0-63.639-17.545-17.546-46.095-17.545-63.639 0-17.545 17.545-17.545 46.094 0 63.639 17.544 17.545 46.094 17.547 63.639 0zm-42.426-42.426c5.85-5.849 15.365-5.848 21.213 0 5.863 5.864 5.863 15.35 0 21.213-5.864 5.863-15.35 5.862-21.213 0-5.848-5.848-5.848-15.364 0-21.213zm243.161 221.949c10.301-13.743 17.31-30.086 19.862-47.85h16.076c8.284 0 15-6.716 15-15s-6.716-15-15-15h-16.076c-2.552-17.763-9.56-34.106-19.862-47.85l11.397-11.397c5.858-5.858 5.858-15.355 0-21.213-5.857-5.858-15.355-5.858-21.213 0l-11.397 11.397c-13.743-10.301-30.086-17.31-47.849-19.861v-16.076c0-8.284-6.716-15-15-15s-15 6.716-15 15v16.076c-17.763 2.552-34.106 9.56-47.849 19.861l-11.397-11.397c-5.857-5.858-15.355-5.858-21.213 0s-5.858 15.355 0 21.213l11.397 11.397c-10.301 13.743-17.31 30.086-19.862 47.85h-16.076c-8.284 0-15 6.716-15 15s6.716 15 15 15h16.076c2.552 17.763 9.56 34.106 19.862 47.85l-11.397 11.397c-5.858 5.858-5.858 15.355 0 21.213 5.857 5.857 15.355 5.858 21.213 0l11.397-11.397c13.743 10.301 30.086 17.31 47.849 19.861v16.076c0 8.284 6.716 15 15 15s15-6.716 15-15v-16.076c17.763-2.552 34.106-9.56 47.849-19.861l11.397 11.397c5.857 5.857 15.355 5.858 21.213 0s5.858-15.355 0-21.213zm-84.062 12.15c-41.355 0-75-33.645-75-75s33.645-75 75-75 75 33.645 75 75-33.645 75-75 75zm-166-75c0-24.813-20.187-45-45-45s-45 20.187-45 45 20.187 45 45 45 45-20.187 45-45zm-45 15c-8.271 0-15-6.729-15-15s6.729-15 15-15 15 6.729 15 15-6.729 15-15 15z" fill="url(#SVGID_1_)"/></g></g></g></svg>